<svg width="519" height="302" viewBox="0 0 519 302" fill="none" xmlns="http://www.w3.org/2000/svg">
<path d="M90.68 102.91C90.68 126.61 87.34 228.36 80.65 244.16C70.38 265.69 46.59 307.52 21.4 276.97C4.56002 260.92 11.14 168.21 9 149.58C9 118.47 19.09 93.49 39.27 74.65L90.68 102.91ZM56.58 141.2C31.5 39.21 33.14 251.29 42.37 263.86C51.84 254.13 56.58 158.58 56.58 141.2Z" stroke="#65237C" stroke-width="18" stroke-linecap="round"/>
<path d="M188.4 238.51C136.24 290.33 162.09 304.01 91.77 261.66C108.5 232.19 101.32 183.43 92.32 151.65C135.86 101.15 120.57 120.46 178.01 139.8L149.38 237.41C149.13 216.26 144.46 161.25 135.34 152.38C129.61 194.92 112.58 302.69 188.4 238.51Z" stroke="#65237C" stroke-width="18" stroke-linecap="round"/>
<path d="M272.99 238.51C220.79 290.4 246.66 303.97 176.36 261.66C210.14 189.6 145.88 215.32 208.63 157.38C282.89 187.07 262.49 171.29 233.97 237.42C230.04 170.37 204.97 195.74 217.93 242.52C228.01 275.5 249.92 252.59 272.99 238.51Z" stroke="#65237C" stroke-width="18" stroke-linecap="round"/>
<path d="M346.47 287.19C312.86 277.18 320.14 266.64 290.14 290.11L266.07 270.05C264.36 217.84 272.96 181.82 303.81 138.23L297.61 256.55L301.26 260.93C316.5 228.57 326.46 172.84 309.01 136.03L347.48 116.99L346.47 287.19Z" stroke="#65237C" stroke-width="18" stroke-linecap="round"/>
<path d="M423.95 230.49C419.09 252.25 413.31 270.12 406.63 284.09H351.39V115.69L394.23 101.11C390.95 139.64 384.87 228.13 376 256.57C396.54 252.68 412.52 243.98 423.95 230.49Z" stroke="#65237C" stroke-width="18" stroke-linecap="round"/>
<path d="M507.38 23L496.88 138.23C490.68 134.95 482.54 132.76 472.45 131.67C471.72 137.38 471.36 209.04 471.36 218.64C468.5 252.86 490.34 278.41 480.74 276.13C480.19 276 440.19 281 440.19 281C425.39 250.9 451.84 152.54 451.65 131.49C407.35 137.29 422.68 141.39 423.58 99.95C441.51 83.83 490.16 38.58 507.38 23Z" stroke="#65237C" stroke-width="18" stroke-linecap="round"/>
<path d="M90.68 102.91C90.68 126.61 87.34 228.36 80.65 244.16C70.38 265.69 46.59 307.52 21.4 276.97C4.56002 260.92 11.14 168.21 9 149.58C9 118.47 19.09 93.49 39.27 74.65L90.68 102.91ZM56.58 141.2C31.5 39.21 33.14 251.29 42.37 263.86C51.84 254.13 56.58 158.58 56.58 141.2Z" fill="white"/>
<path d="M188.4 238.51C136.24 290.33 162.09 304.01 91.77 261.66C108.5 232.19 101.32 183.43 92.32 151.65C135.86 101.15 120.57 120.46 178.01 139.8L149.38 237.41C149.13 216.26 144.46 161.25 135.34 152.38C129.61 194.92 112.58 302.69 188.4 238.51Z" fill="white"/>
<path d="M272.99 238.51C220.79 290.4 246.66 303.97 176.36 261.66C210.14 189.6 145.88 215.32 208.63 157.38C282.89 187.07 262.49 171.29 233.97 237.42C230.04 170.37 204.97 195.74 217.93 242.52C228.01 275.5 249.92 252.59 272.99 238.51Z" fill="white"/>
<path d="M346.47 287.19C312.86 277.18 320.14 266.64 290.14 290.11L266.07 270.05C264.36 217.84 272.96 181.82 303.81 138.23L297.61 256.55L301.26 260.93C316.5 228.57 326.46 172.84 309.01 136.03L347.48 116.99L346.47 287.19Z" fill="white"/>
<path d="M423.95 230.49C419.09 252.25 413.31 270.12 406.63 284.09H351.39V115.69L394.23 101.11C390.95 139.64 384.87 228.13 376 256.57C396.54 252.68 412.52 243.98 423.95 230.49Z" fill="white"/>
<path d="M507.38 23L496.88 138.23C490.68 134.95 482.54 132.76 472.45 131.67C471.72 137.38 471.36 209.04 471.36 218.64C468.5 252.86 490.34 278.41 480.74 276.13C480.19 276 440.19 281 440.19 281C425.39 250.9 451.84 152.54 451.65 131.49C407.35 137.29 422.68 141.39 423.58 99.95C441.51 83.83 490.16 38.58 507.38 23Z" fill="white"/>
<path d="M39.95 282.04C35.33 282.04 30.58 279.11 25.81 273.33L25.59 273.07L25.34 272.83C22.91 270.51 18.52 262.57 16.44 235.38C15 216.54 15.1 194.85 15.18 177.43C15.24 164.74 15.29 154.67 14.72 149.27C14.78 121.25 23.13 99.1 40.22 81.71L84.94 106.29C84.69 139.33 81.01 228.21 75.42 241.83C63.03 267.76 50.44 282.04 39.95 282.04ZM44.92 107.83C43.07 107.83 39.61 108.55 37.16 113.4C30.52 126.52 30.28 173.76 30.48 193.46C30.64 208.66 31.63 258.9 37.76 267.25L41.76 272.69L46.47 267.85C48.73 265.53 54.03 260.1 58.73 205.89C61.03 179.38 62.31 150.81 62.31 141.19V140.5L62.14 139.83C55.53 112.93 50.99 107.83 44.92 107.83Z" fill="url(#paint0_linear_1_242)"/>
<path d="M141.39 281.01C134.95 281.01 122.29 273.38 99.31 259.52L99.3 259.51C115.31 224.67 103.95 172.76 98.66 153.08C115.33 133.77 123.15 125.19 128.6 125.19C131.63 125.19 135.78 127.32 142.07 130.55C148.86 134.03 157.87 138.66 171 143.42L153.1 204.47C152.62 199.53 152.05 194.48 151.39 189.54C147.32 159.09 142.58 151.41 139.36 148.28L131.21 140.35L129.69 151.62L129.09 156.03C124.9 186.69 117.89 237.99 134.18 256.67C138.45 261.57 144.18 264.16 150.75 264.16C150.75 264.16 150.75 264.16 150.76 264.16C153.48 264.16 156.37 263.73 159.43 262.86C158.15 264.52 156.97 266.08 155.85 267.54C148.55 277.12 145.44 281.01 141.39 281.01Z" fill="url(#paint1_linear_1_242)"/>
<path d="M225.98 281.02C219.57 281.02 207 273.44 184.17 259.69L183.68 259.4C197.71 227.22 192.05 214.01 187.86 204.25C185.64 199.07 184.52 196.48 186.49 191.69C189.06 185.43 196.52 176.61 209.89 164.05C215.39 166.23 220.32 168.15 224.76 169.88C240.55 176.02 253.02 180.88 254.09 183.9C254.76 185.79 251.08 192.18 247.19 198.94C244.46 203.69 241.15 209.45 237.5 216.56C234.55 199.46 229.26 190.82 221.71 190.82C219.98 190.82 216.65 191.38 213.8 195.13C207.36 203.6 206.8 223.72 212.43 244.06L212.47 244.2C216.72 258.12 223.91 265.18 233.84 265.18C237.11 265.18 240.44 264.39 243.85 263.05C242.63 264.63 241.5 266.12 240.43 267.53C233.14 277.12 230.02 281.02 225.98 281.02Z" fill="url(#paint2_linear_1_242)"/>
<path d="M271.71 267.31C270.54 222.67 277.42 192.01 296.98 159.15L291.77 258.51L302.6 271.51L306.43 263.39C322.81 228.63 330.99 175.77 316.41 138.77C322.37 135.82 332.79 130.67 341.68 126.26L340.78 279.32C335.87 277.55 332.11 275.85 328.89 274.4C323.73 272.07 319.65 270.23 314.96 270.23C308.16 270.23 301.76 273.97 290.25 282.78C287.18 280.2 281.67 275.6 271.71 267.31Z" fill="url(#paint3_linear_1_242)"/>
<path d="M357.11 278.37V119.79L387.8 109.34C387.54 112.47 387.27 115.81 386.99 119.32C383.62 161.08 377.98 230.98 370.53 254.86L367.69 263.96L377.06 262.19C391.3 259.49 403.6 254.53 413.83 247.38C410.54 259.2 406.9 269.57 402.96 278.37H357.11Z" fill="url(#paint4_linear_1_242)"/>
<path d="M443.87 274.77C437.01 253.04 445.9 203.14 451.91 169.45C455 152.11 457.44 138.41 457.38 131.43L457.32 124.96L450.91 125.8C444.86 126.59 439.9 127.35 435.91 127.97C431.69 128.62 428.41 129.12 426.19 129.3C426.35 128.12 426.58 126.67 426.81 125.31C427.64 120.26 428.86 112.83 429.24 102.55C439.22 93.53 456.4 77.68 473.04 62.32C483.01 53.12 492.62 44.25 500.34 37.17L491.89 129.9C486.47 128.06 480.17 126.74 473.07 125.97L467.48 125.36L466.77 130.93C465.96 137.3 465.64 211.35 465.63 218.39C463.94 239.35 470.83 257.03 474.96 267.6C475.36 268.63 475.8 269.76 476.2 270.82C470.56 271.48 459.75 272.79 443.87 274.77Z" fill="url(#paint5_linear_1_242)"/>
<defs>
<linearGradient id="paint0_linear_1_242" x1="14.7227" y1="159.974" x2="500.341" y2="159.974" gradientUnits="userSpaceOnUse">
<stop stop-color="#8F9194"/>
<stop offset="0.0107" stop-color="#8C8E91"/>
<stop offset="0.1094" stop-color="#76787A"/>
<stop offset="0.2158" stop-color="#66686A"/>
<stop offset="0.3342" stop-color="#5D5E60"/>
<stop offset="0.4888" stop-color="#5A5B5D"/>
<stop offset="0.7136" stop-color="#57585A"/>
<stop offset="0.8859" stop-color="#4E4E50"/>
<stop offset="1" stop-color="#434345"/>
</linearGradient>
<linearGradient id="paint1_linear_1_242" x1="14.7226" y1="159.974" x2="500.342" y2="159.974" gradientUnits="userSpaceOnUse">
<stop stop-color="#8F9194"/>
<stop offset="0.0107" stop-color="#8C8E91"/>
<stop offset="0.1094" stop-color="#76787A"/>
<stop offset="0.2158" stop-color="#66686A"/>
<stop offset="0.3342" stop-color="#5D5E60"/>
<stop offset="0.4888" stop-color="#5A5B5D"/>
<stop offset="0.7136" stop-color="#57585A"/>
<stop offset="0.8859" stop-color="#4E4E50"/>
<stop offset="1" stop-color="#434345"/>
</linearGradient>
<linearGradient id="paint2_linear_1_242" x1="14.7226" y1="159.974" x2="500.342" y2="159.974" gradientUnits="userSpaceOnUse">
<stop stop-color="#8F9194"/>
<stop offset="0.0107" stop-color="#8C8E91"/>
<stop offset="0.1094" stop-color="#76787A"/>
<stop offset="0.2158" stop-color="#66686A"/>
<stop offset="0.3342" stop-color="#5D5E60"/>
<stop offset="0.4888" stop-color="#5A5B5D"/>
<stop offset="0.7136" stop-color="#57585A"/>
<stop offset="0.8859" stop-color="#4E4E50"/>
<stop offset="1" stop-color="#434345"/>
</linearGradient>
<linearGradient id="paint3_linear_1_242" x1="14.7228" y1="159.974" x2="500.341" y2="159.974" gradientUnits="userSpaceOnUse">
<stop stop-color="#8F9194"/>
<stop offset="0.0107" stop-color="#8C8E91"/>
<stop offset="0.1094" stop-color="#76787A"/>
<stop offset="0.2158" stop-color="#66686A"/>
<stop offset="0.3342" stop-color="#5D5E60"/>
<stop offset="0.4888" stop-color="#5A5B5D"/>
<stop offset="0.7136" stop-color="#57585A"/>
<stop offset="0.8859" stop-color="#4E4E50"/>
<stop offset="1" stop-color="#434345"/>
</linearGradient>
<linearGradient id="paint4_linear_1_242" x1="14.7229" y1="159.974" x2="500.341" y2="159.974" gradientUnits="userSpaceOnUse">
<stop stop-color="#8F9194"/>
<stop offset="0.0107" stop-color="#8C8E91"/>
<stop offset="0.1094" stop-color="#76787A"/>
<stop offset="0.2158" stop-color="#66686A"/>
<stop offset="0.3342" stop-color="#5D5E60"/>
<stop offset="0.4888" stop-color="#5A5B5D"/>
<stop offset="0.7136" stop-color="#57585A"/>
<stop offset="0.8859" stop-color="#4E4E50"/>
<stop offset="1" stop-color="#434345"/>
</linearGradient>
<linearGradient id="paint5_linear_1_242" x1="14.7226" y1="159.974" x2="500.341" y2="159.974" gradientUnits="userSpaceOnUse">
<stop stop-color="#8F9194"/>
<stop offset="0.0107" stop-color="#8C8E91"/>
<stop offset="0.1094" stop-color="#76787A"/>
<stop offset="0.2158" stop-color="#66686A"/>
<stop offset="0.3342" stop-color="#5D5E60"/>
<stop offset="0.4888" stop-color="#5A5B5D"/>
<stop offset="0.7136" stop-color="#57585A"/>
<stop offset="0.8859" stop-color="#4E4E50"/>
<stop offset="1" stop-color="#434345"/>
</linearGradient>
</defs>
</svg>
